<?xml version="1.0" encoding="UTF-8"?>
<svg width="1731px" height="208px" viewBox="0 0 1731 208" version="1.1" xmlns="http://www.w3.org/2000/svg" xmlns:xlink="http://www.w3.org/1999/xlink">
    <title>FLUXxBOARD</title>
    <defs>
        <linearGradient x1="50%" y1="0%" x2="50%" y2="100%" id="linearGradient-1">
            <stop stop-color="#656565" offset="0%"></stop>
            <stop stop-color="#2C2C2C" offset="100%"></stop>
        </linearGradient>
        <linearGradient x1="50%" y1="0%" x2="50%" y2="100%" id="linearGradient-2">
            <stop stop-color="#656565" offset="0%"></stop>
            <stop stop-color="#2C2C2C" offset="100%"></stop>
        </linearGradient>
        <linearGradient x1="50%" y1="0%" x2="50%" y2="100%" id="linearGradient-3">
            <stop stop-color="#656565" offset="0%"></stop>
            <stop stop-color="#2C2C2C" offset="100%"></stop>
        </linearGradient>
        <linearGradient x1="50%" y1="0%" x2="50%" y2="100%" id="linearGradient-4">
            <stop stop-color="#656565" offset="0%"></stop>
            <stop stop-color="#2C2C2C" offset="100%"></stop>
        </linearGradient>
        <linearGradient x1="50%" y1="0%" x2="50%" y2="100%" id="linearGradient-5">
            <stop stop-color="#656565" offset="0%"></stop>
            <stop stop-color="#2C2C2C" offset="100%"></stop>
        </linearGradient>
        <linearGradient x1="50%" y1="0%" x2="50%" y2="100%" id="linearGradient-6">
            <stop stop-color="#656565" offset="0%"></stop>
            <stop stop-color="#2C2C2C" offset="100%"></stop>
        </linearGradient>
        <linearGradient x1="50%" y1="0%" x2="50%" y2="100%" id="linearGradient-7">
            <stop stop-color="#656565" offset="0%"></stop>
            <stop stop-color="#2C2C2C" offset="100%"></stop>
        </linearGradient>
    </defs>
    <g id="Page-1" stroke="none" stroke-width="1" fill="none" fill-rule="evenodd" fill-opacity="0">
        <g id="MacBook-Pro-16&quot;-Copy-5" transform="translate(-13, -805)" fill="#E6E6E6">
            <g id="FLUXxBOARD" transform="translate(0, 761)">
                <path d="M146.984375,45.421875 L146.984375,82.75 L99.9023438,82.75 C88.9811491,82.75 80.5419099,84.4977869 74.5960089,88.026655 C68.6821833,91.5364865 64.453706,98.1649954 61.8583741,107.873314 C59.6825936,115.630444 58.3803571,122.742863 57.9540324,129.210937 L132.335938,129.210938 L132.335938,165.513672 L57.7753906,165.513672 L57.7753906,251.5 L14.1484375,251.5 L14.1484406,134.250205 C14.2465493,106.191093 19.9057856,84.3952167 31.0882278,68.8476985 C42.2944912,53.2670604 62.9133067,45.421875 93.0175781,45.421875 L146.984375,45.421875 Z" id="Path" stroke="url(#linearGradient-1)" fill-rule="nonzero"></path>
                <path d="M218.908203,45.421875 L218.908203,167.192549 C219.39585,173.802266 220.855816,181.552397 223.285055,190.443414 C225.685006,199.227234 229.82037,205.388578 235.728821,208.89522 C241.674722,212.424088 250.113962,214.171875 261.035156,214.171875 L308.117188,214.171875 L308.117188,251.5 L254.150391,251.5 C224.046119,251.5 203.427304,243.654815 192.22104,228.074176 C181.038598,212.526658 175.379362,190.730782 175.28125,162.669922 L175.28125,45.421875 L218.908203,45.421875 Z" id="Path" stroke="url(#linearGradient-1)" fill-rule="nonzero"></path>
                <path d="M380.041016,45.421875 L380.041016,162.669922 C380.041016,170.443901 381.379531,179.237822 384.051773,189.052237 C386.693855,198.755882 390.947161,205.385005 396.861634,208.89522 C402.807535,212.424088 411.246774,214.171875 422.167969,214.171875 L427.441406,214.171875 C438.362601,214.171875 446.80184,212.424088 452.747741,208.89522 C458.662214,205.385005 462.91552,198.755882 465.557602,189.052237 C468.229844,179.237822 469.568359,170.443901 469.568359,162.669922 L469.568359,45.421875 L513.195313,45.421875 L513.195309,162.67167 C513.097201,190.730782 507.437964,212.526658 496.255522,228.074176 C485.049259,243.654815 464.430443,251.5 434.326172,251.5 L415.283203,251.5 C385.178932,251.5 364.560116,243.654815 353.353853,228.074176 C342.171411,212.526658 336.512174,190.730782 336.414062,162.669922 L336.414062,45.421875 L380.041016,45.421875 Z" id="Path" stroke="url(#linearGradient-2)" fill-rule="nonzero"></path>
                <path d="M575.10897,45.421875 L607.617188,108.26142 L640.125405,45.421875 L681.827333,45.421875 L628.541418,148.460938 L681.827333,251.5 L640.125405,251.5 L607.617187,188.660455 L575.10897,251.5 L533.405999,251.5 L586.839113,148.460938 L533.405999,45.421875 L575.10897,45.421875 Z" id="Path" stroke="url(#linearGradient-3)" fill-rule="nonzero"></path>
                <path d="M736.241783,45.421875 L768.75,108.26142 L801.258217,45.421875 L842.960146,45.421875 L789.674231,148.460937 L842.960146,251.5 L801.258217,251.5 L768.75,188.660455 L736.241783,251.5 L694.538811,251.5 L747.971925,148.460938 L694.538811,45.421875 L736.241783,45.421875 Z" id="Path" stroke="url(#linearGradient-3)" fill-rule="nonzero"></path>
                <path d="M936.181641,45.421875 C966.291787,45.421875 986.31509,51.926734 996.34178,64.8041494 C1006.38608,77.704185 1011.34062,90.2137364 1011.24217,102.322424 C1009.99456,118.940159 1000.70964,131.862289 983.336615,141.09087 C992.635252,142.188898 1000.99599,146.944499 1008.40787,155.381928 C1016.24822,164.307107 1020.12988,175.670254 1020.03124,189.472939 C1020.12958,203.044965 1015.17471,216.769243 1005.14144,230.638763 C995.112984,244.501629 975.087381,251.5 944.970703,251.5 L863.757812,251.5 L863.757812,45.421875 L936.181641,45.421875 Z M915.67056,164.341786 L907.384766,164.341797 L907.384766,214.171875 L938.085938,214.171875 C949.018617,214.171875 957.175388,212.85693 962.546564,210.195537 C967.856612,207.564432 971.598569,204.224132 973.752442,200.155705 C975.901763,196.095876 977.08446,192.537512 977.282212,189.476289 C977.085027,186.22274 975.903104,182.566813 973.752442,178.504452 C971.598569,174.436024 967.856612,171.095725 962.546564,168.464619 C957.175388,165.803226 949.018617,164.488281 938.085938,164.488281 L915.67056,164.341786 Z M929.296875,82.75 L907.384766,82.75 L907.384766,127.013672 L929.296875,127.013672 C940.229555,127.013672 948.386325,125.698727 953.757501,123.037334 C959.086996,120.396593 962.936977,117.428075 965.290579,114.11382 C967.619151,110.83481 968.684683,107.056112 968.494634,102.780013 C968.304797,98.5086976 966.958182,94.9222761 964.4419,92.0261783 C961.904774,89.1060898 958.165262,86.8418978 953.236824,85.215035 C948.240239,83.5656768 940.25894,82.75 929.296875,82.75 Z" id="Shape" stroke="url(#linearGradient-4)" fill-rule="nonzero"></path>
                <path d="M1137.45117,45.421875 C1167.55544,45.421875 1188.17426,53.2670604 1199.38052,68.8476985 C1210.56296,84.3952167 1216.2222,106.191093 1216.32031,134.251953 L1216.32031,162.67167 C1216.2222,190.730782 1210.56296,212.526658 1199.38052,228.074176 C1188.17426,243.654815 1167.55544,251.5 1137.45117,251.5 L1118.4082,251.5 C1088.30393,251.5 1067.68512,243.654815 1056.47885,228.074176 C1045.29641,212.526658 1039.63717,190.730782 1039.53906,162.669922 L1039.53907,134.250205 C1039.63717,106.191093 1045.29641,84.3952167 1056.47885,68.8476985 C1067.68512,53.2670604 1088.30393,45.421875 1118.4082,45.421875 L1137.45117,45.421875 Z M1130.56641,82.75 L1125.29297,82.75 C1114.37177,82.75 1105.93253,84.4977869 1099.98663,88.026655 C1094.07216,91.5368705 1089.81885,98.1659926 1087.17677,107.869638 C1084.50453,117.684053 1083.16602,126.477974 1083.16602,134.251953 L1083.16602,162.669922 C1083.16602,170.443901 1084.50453,179.237822 1087.17677,189.052237 C1089.81885,198.755882 1094.07216,205.385005 1099.98663,208.89522 C1105.93253,212.424088 1114.37177,214.171875 1125.29297,214.171875 L1130.56641,214.171875 C1141.4876,214.171875 1149.92684,212.424088 1155.87274,208.89522 C1161.78721,205.385005 1166.04052,198.755882 1168.6826,189.052237 C1171.35484,179.237822 1172.69336,170.443901 1172.69336,162.669922 L1172.69336,134.251953 C1172.69336,126.477974 1171.35484,117.684053 1168.6826,107.869638 C1166.04052,98.1659926 1161.78721,91.5368705 1155.87274,88.026655 C1149.92684,84.4977869 1141.4876,82.75 1130.56641,82.75 Z" id="Shape" stroke="url(#linearGradient-2)" fill-rule="nonzero"></path>
                <path d="M1345.72586,45.421875 L1385.17511,251.5 L1343.5802,251.5 L1335.23059,207.554688 L1285.66785,207.554688 L1277.31824,251.5 L1235.72333,251.5 L1275.17257,45.421875 L1345.72586,45.421875 Z M1310.44922,78.4719708 L1292.74312,171.251953 L1328.15532,171.251953 L1310.44922,78.4719708 Z" id="Shape" stroke="url(#linearGradient-5)" fill-rule="nonzero"></path>
                <path d="M1478.17383,45.421875 C1508.29791,45.421875 1528.32725,53.1587652 1538.35794,68.4998128 C1548.38064,83.828657 1553.33261,98.815327 1553.23436,113.447816 C1553.33261,128.087017 1548.38064,143.073687 1538.35852,158.401634 C1534.39142,164.497426 1528.86285,169.36406 1521.76816,172.996465 L1562.049,251.5 L1520.35181,251.5 L1483.59245,181.349657 C1481.82984,181.436855 1480.02363,181.480469 1478.17383,181.480469 L1449.37695,181.480469 L1449.37695,251.5 L1405.75,251.5 L1405.75,45.421875 L1478.17383,45.421875 Z M1471.28906,82.75 L1449.37695,82.75 L1449.37695,144.152344 L1471.28906,144.152344 C1482.22174,144.152344 1490.37851,142.837399 1495.74969,140.176006 C1501.05974,137.5449 1504.80169,134.204601 1506.95557,130.136173 C1509.12273,126.042637 1510.29224,120.478811 1510.48613,113.451644 C1510.29238,106.424212 1509.12287,100.859956 1506.95557,96.7661704 C1504.80169,92.6977429 1501.05974,89.3574434 1495.74969,86.7263382 C1490.37851,84.0649447 1482.22174,82.75 1471.28906,82.75 Z" id="Shape" stroke="url(#linearGradient-6)" fill-rule="nonzero"></path>
                <path d="M1664.79492,45.421875 C1694.89919,45.421875 1715.51801,53.2670604 1726.72427,68.8476985 C1737.90671,84.3952167 1743.56595,106.191093 1743.66406,134.251953 L1743.66406,162.67167 C1743.56595,190.730782 1737.90671,212.526658 1726.72427,228.074176 C1715.51801,243.654815 1694.89919,251.5 1664.79492,251.5 L1581.53125,251.5 L1581.53125,45.421875 L1664.79492,45.421875 Z M1657.91016,82.75 L1625.1582,82.75 L1625.1582,214.171875 L1657.91016,214.171875 C1668.83135,214.171875 1677.27059,212.424088 1683.21649,208.89522 C1689.13096,205.385005 1693.38427,198.755882 1696.02635,189.052237 C1698.69859,179.237822 1700.03711,170.443901 1700.03711,162.669922 L1700.03711,134.251953 C1700.03711,126.477974 1698.69859,117.684053 1696.02635,107.869638 C1693.38427,98.1659926 1689.13096,91.5368705 1683.21649,88.026655 C1677.27059,84.4977869 1668.83135,82.75 1657.91016,82.75 Z" id="Shape" stroke="url(#linearGradient-7)" fill-rule="nonzero"></path>
            </g>
        </g>
    </g>
</svg>
